<svg id="visual" viewBox="0 0 900 600" width="900" height="600" xmlns="http://www.w3.org/2000/svg" xmlns:xlink="http://www.w3.org/1999/xlink" version="1.1"><rect x="0" y="0" width="900" height="600" fill="#0b0c10"></rect><path d="M0 69L18.8 68.2C37.7 67.3 75.3 65.7 112.8 67.5C150.3 69.3 187.7 74.7 225.2 73.7C262.7 72.7 300.3 65.3 337.8 61.7C375.3 58 412.7 58 450.2 55.8C487.7 53.7 525.3 49.3 562.8 46.3C600.3 43.3 637.7 41.7 675.2 44.3C712.7 47 750.3 54 787.8 54.7C825.3 55.3 862.7 49.7 881.3 46.8L900 44L900 0L881.3 0C862.7 0 825.3 0 787.8 0C750.3 0 712.7 0 675.2 0C637.7 0 600.3 0 562.8 0C525.3 0 487.7 0 450.2 0C412.7 0 375.3 0 337.8 0C300.3 0 262.7 0 225.2 0C187.7 0 150.3 0 112.8 0C75.3 0 37.7 0 18.8 0L0 0Z" fill="#46a29f" stroke-linecap="round" stroke-linejoin="miter"></path></svg>